<?xml version="1.0" encoding="utf-8"?>
<!-- Generator: Adobe Illustrator 19.1.0, SVG Export Plug-In . SVG Version: 6.00 Build 0)  -->
<svg version="1.1" id="圖層_1" xmlns="http://www.w3.org/2000/svg" xmlns:xlink="http://www.w3.org/1999/xlink" x="0px" y="0px"
	 viewBox="0 0 21.6 21.5" style="enable-background:new 0 0 21.6 21.5;" xml:space="preserve">
<path fill="#F7F7F7" d="M15.7,11c0-1.8-1-3.3-2.5-4v2.2l2.5,2.4C15.6,11.5,15.7,11.3,15.7,11z M18.2,11
	c0,0.9-0.2,1.8-0.5,2.6l1.5,1.5c0.7-1.2,1-2.6,1-4.1c0-4.3-3-7.9-7-8.8v2.1C16,5.2,18.2,7.9,18.2,11z M3.4,2L2.2,3.3L6.9,8H2.2v6h4
	l5,5v-6.7l4.3,4.3c-0.7,0.5-1.4,0.9-2.3,1.2v2.1c1.4-0.3,2.6-1,3.7-1.8l2,2l1.3-1.3l-9-9L3.4,2z M11.2,3L9.1,5.1l2.1,2.1V3z"/>
</svg>
